<?xml version="1.0" encoding="UTF-8" standalone="no"?>
<svg
   xmlns:dc="http://purl.org/dc/elements/1.1/"
   xmlns:cc="http://creativecommons.org/ns#"
   xmlns:rdf="http://www.w3.org/1999/02/22-rdf-syntax-ns#"
   xmlns:svg="http://www.w3.org/2000/svg"
   xmlns="http://www.w3.org/2000/svg"
   xmlns:sodipodi="http://sodipodi.sourceforge.net/DTD/sodipodi-0.dtd"
   xmlns:inkscape="http://www.inkscape.org/namespaces/inkscape"
   inkscape:version="1.0 (4035a4fb49, 2020-05-01)"
   sodipodi:docname="rocket.svg"
   id="svg1749"
   version="1.1"
   fill="none"
   viewBox="0 0 32 32"
   height="32"
   width="32">
  <metadata
     id="metadata1755">
    <rdf:RDF>
      <cc:Work
         rdf:about="">
        <dc:format>image/svg+xml</dc:format>
        <dc:type
           rdf:resource="http://purl.org/dc/dcmitype/StillImage" />
      </cc:Work>
    </rdf:RDF>
  </metadata>
  <defs
     id="defs1753" />
  <sodipodi:namedview
     inkscape:current-layer="svg1749"
     inkscape:window-maximized="1"
     inkscape:window-y="-8"
     inkscape:window-x="-8"
     inkscape:cy="21.194548"
     inkscape:cx="12.183395"
     inkscape:zoom="16.8125"
     showgrid="false"
     id="namedview1751"
     inkscape:window-height="705"
     inkscape:window-width="1366"
     inkscape:pageshadow="2"
     inkscape:pageopacity="0"
     guidetolerance="10"
     gridtolerance="10"
     objecttolerance="10"
     borderopacity="1"
     bordercolor="#666666"
     pagecolor="#ffffff" />
  <path
     style="fill:#1c77b0;fill-opacity:1"
     id="path1737"
     fill="#6842C2"
     d="M0.0246582 15.5429L7.33351 9.14285L21.9512 10.0571L22.8648 24.6857L16.4696 32C16.4696 32 16.4705 26.5152 10.9879 21.0286C5.50538 15.5419 0.0246582 15.5429 0.0246582 15.5429Z" />
  <path
     id="path1739"
     fill="#FFAC33"
     d="M1.78224e-05 32C1.78224e-05 32 -0.032872 24.7049 2.72713 21.9429C5.48714 19.1808 12.8152 19.371 12.8152 19.371C12.8152 19.371 12.8143 26.5143 10.0734 29.2571C7.33262 32 1.78224e-05 32 1.78224e-05 32Z" />
  <path
     id="path1741"
     fill="#FFCC4D"
     d="M7.33265 28.3428C9.35093 28.3428 10.9871 26.7055 10.9871 24.6857C10.9871 22.6659 9.35093 21.0286 7.33265 21.0286C5.31436 21.0286 3.67822 22.6659 3.67822 24.6857C3.67822 26.7055 5.31436 28.3428 7.33265 28.3428Z" />
  <path
     style="fill:#ec839e;fill-opacity:1"
     id="path1743"
     fill="#04D361"
     d="M32.0001 0C32.0001 0 22.8641 0 11.9008 9.14285C6.41916 13.7143 6.41916 21.9429 8.24638 23.7714C10.0736 25.6 18.296 25.6 22.8641 20.1143C32.0001 9.14285 32.0001 0 32.0001 0Z" />
  <path
     style="fill:#1c77b0;fill-opacity:1"
     id="path1745"
     fill="#6842C2"
     d="M23.7776 4.57143C22.2948 4.57143 21.0249 5.4592 20.4512 6.72914C20.9098 6.5216 21.415 6.4 21.9504 6.4C23.9686 6.4 25.6048 8.03748 25.6048 10.0571C25.6048 10.5929 25.4833 11.0985 25.2768 11.5566C26.5458 10.9833 27.432 9.71245 27.432 8.22857C27.432 6.20891 25.7958 4.57143 23.7776 4.57143Z" />
  <path
     style="fill:#1c77b0;fill-opacity:1"
     id="path1747"
     fill="#6842C2"
     d="M6.42017 25.6C6.42017 25.6 6.42017 21.9428 7.33377 21.0285C8.24738 20.1142 19.2116 10.9723 20.1243 11.8857C21.037 12.799 11.9009 23.7714 10.9873 24.6857C10.0737 25.6 6.42017 25.6 6.42017 25.6Z" />
</svg>
